<?xml version="1.0" encoding="UTF-8" standalone="no"?>
<!-- Created with Inkscape (http://www.inkscape.org/) -->

<svg
   width="210mm"
   height="210mm"
   viewBox="0 0 210 210"
   version="1.1"
   id="svg1"
   xml:space="preserve"
   inkscape:version="1.3 (0e150ed6c4, 2023-07-21)"
   sodipodi:docname="icono-negro.svg"
   inkscape:export-filename="icono.png"
   inkscape:export-xdpi="96"
   inkscape:export-ydpi="96"
   xmlns:inkscape="http://www.inkscape.org/namespaces/inkscape"
   xmlns:sodipodi="http://sodipodi.sourceforge.net/DTD/sodipodi-0.dtd"
   xmlns:xlink="http://www.w3.org/1999/xlink"
   xmlns="http://www.w3.org/2000/svg"
   xmlns:svg="http://www.w3.org/2000/svg"><sodipodi:namedview
     id="namedview1"
     pagecolor="#ffffff"
     bordercolor="#000000"
     borderopacity="0.25"
     inkscape:showpageshadow="2"
     inkscape:pageopacity="0.0"
     inkscape:pagecheckerboard="0"
     inkscape:deskcolor="#d1d1d1"
     inkscape:document-units="mm"
     inkscape:zoom="0.3424033"
     inkscape:cx="442.46069"
     inkscape:cy="473.12628"
     inkscape:window-width="1272"
     inkscape:window-height="683"
     inkscape:window-x="361"
     inkscape:window-y="166"
     inkscape:window-maximized="0"
     inkscape:current-layer="layer1"
     inkscape:export-bgcolor="#ffffff00" /><defs
     id="defs1"><linearGradient
       id="linearGradient20"
       inkscape:collect="always"><stop
         style="stop-color:#5d5d5d;stop-opacity:0.93269199;"
         offset="0"
         id="stop20" /><stop
         style="stop-color:#000000;stop-opacity:0;"
         offset="1"
         id="stop21" /></linearGradient><inkscape:path-effect
       effect="powerstroke"
       id="path-effect16"
       is_visible="true"
       lpeversion="1.3"
       scale_width="1"
       interpolator_type="CentripetalCatmullRom"
       interpolator_beta="0.75"
       start_linecap_type="round"
       end_linecap_type="round"
       offset_points="29.33694,0.6265236"
       linejoin_type="spiro"
       miter_limit="4"
       not_jump="true"
       sort_points="true"
       message="&lt;b&gt;Ctrl + clic&lt;/b&gt; sobre un nodo existente y muévalo" /><inkscape:path-effect
       effect="simplify"
       id="path-effect15"
       is_visible="true"
       lpeversion="1.3"
       threshold="0.012"
       steps="1"
       smooth_angles="0"
       helper_size="0"
       simplify_individual_paths="false"
       simplify_just_coalesce="false"
       step="1" /><inkscape:path-effect
       effect="powerstroke"
       id="path-effect14"
       is_visible="true"
       lpeversion="1.3"
       scale_width="1"
       interpolator_type="CentripetalCatmullRom"
       interpolator_beta="0.75"
       start_linecap_type="round"
       end_linecap_type="round"
       offset_points="13.55629,0.6265236"
       linejoin_type="spiro"
       miter_limit="4"
       not_jump="true"
       sort_points="true"
       message="&lt;b&gt;Ctrl + clic&lt;/b&gt; sobre un nodo existente y muévalo" /><inkscape:path-effect
       effect="simplify"
       id="path-effect13"
       is_visible="true"
       lpeversion="1.3"
       threshold="0.012"
       steps="1"
       smooth_angles="0"
       helper_size="0"
       simplify_individual_paths="false"
       simplify_just_coalesce="false"
       step="1" /><inkscape:path-effect
       effect="powerstroke"
       id="path-effect12"
       is_visible="true"
       lpeversion="1.3"
       scale_width="1"
       interpolator_type="CentripetalCatmullRom"
       interpolator_beta="0.75"
       start_linecap_type="round"
       end_linecap_type="round"
       offset_points="26.729323,0.6265236"
       linejoin_type="spiro"
       miter_limit="4"
       not_jump="true"
       sort_points="true"
       message="&lt;b&gt;Ctrl + clic&lt;/b&gt; sobre un nodo existente y muévalo" /><inkscape:path-effect
       effect="simplify"
       id="path-effect11"
       is_visible="true"
       lpeversion="1.3"
       threshold="0.012"
       steps="1"
       smooth_angles="0"
       helper_size="0"
       simplify_individual_paths="false"
       simplify_just_coalesce="false"
       step="1" /><inkscape:path-effect
       effect="powerstroke"
       id="path-effect10"
       is_visible="true"
       lpeversion="1.3"
       scale_width="1"
       interpolator_type="CentripetalCatmullRom"
       interpolator_beta="0.75"
       start_linecap_type="round"
       end_linecap_type="round"
       offset_points="2.121835,0.6265236"
       linejoin_type="spiro"
       miter_limit="4"
       not_jump="true"
       sort_points="true"
       message="&lt;b&gt;Ctrl + clic&lt;/b&gt; sobre un nodo existente y muévalo" /><inkscape:path-effect
       effect="simplify"
       id="path-effect9"
       is_visible="true"
       lpeversion="1.3"
       threshold="0.012"
       steps="1"
       smooth_angles="0"
       helper_size="0"
       simplify_individual_paths="false"
       simplify_just_coalesce="false"
       step="1" /><inkscape:path-effect
       effect="powerstroke"
       id="path-effect8"
       is_visible="true"
       lpeversion="1.3"
       scale_width="1"
       interpolator_type="CentripetalCatmullRom"
       interpolator_beta="0.75"
       start_linecap_type="round"
       end_linecap_type="round"
       offset_points="15.35425,0.6265236"
       linejoin_type="spiro"
       miter_limit="4"
       not_jump="true"
       sort_points="true"
       message="&lt;b&gt;Ctrl + clic&lt;/b&gt; sobre un nodo existente y muévalo" /><inkscape:path-effect
       effect="simplify"
       id="path-effect7"
       is_visible="true"
       lpeversion="1.3"
       threshold="0.012"
       steps="1"
       smooth_angles="0"
       helper_size="0"
       simplify_individual_paths="false"
       simplify_just_coalesce="false"
       step="1" /><inkscape:path-effect
       effect="powerstroke"
       id="path-effect6"
       is_visible="true"
       lpeversion="1.3"
       scale_width="1"
       interpolator_type="CentripetalCatmullRom"
       interpolator_beta="0.75"
       start_linecap_type="round"
       end_linecap_type="round"
       offset_points="9.1896968,0.88603817"
       linejoin_type="spiro"
       miter_limit="4"
       not_jump="true"
       sort_points="true"
       message="&lt;b&gt;Ctrl + clic&lt;/b&gt; sobre un nodo existente y muévalo" /><inkscape:path-effect
       effect="simplify"
       id="path-effect5"
       is_visible="true"
       lpeversion="1.3"
       threshold="0.012"
       steps="1"
       smooth_angles="0"
       helper_size="0"
       simplify_individual_paths="false"
       simplify_just_coalesce="false"
       step="1" /><inkscape:path-effect
       effect="powerstroke"
       id="path-effect2"
       is_visible="true"
       lpeversion="1.3"
       scale_width="1"
       interpolator_type="CentripetalCatmullRom"
       interpolator_beta="0.75"
       start_linecap_type="round"
       end_linecap_type="round"
       offset_points="5.8109665,0.88603817"
       linejoin_type="spiro"
       miter_limit="4"
       not_jump="true"
       sort_points="true"
       message="&lt;b&gt;Ctrl + clic&lt;/b&gt; sobre un nodo existente y muévalo" /><inkscape:path-effect
       effect="simplify"
       id="path-effect1"
       is_visible="true"
       lpeversion="1.3"
       threshold="0.012"
       steps="1"
       smooth_angles="0"
       helper_size="0"
       simplify_individual_paths="false"
       simplify_just_coalesce="false"
       step="1" /><radialGradient
       inkscape:collect="always"
       xlink:href="#linearGradient20"
       id="radialGradient21"
       cx="238.14932"
       cy="282.9389"
       fx="238.14932"
       fy="282.9389"
       r="176.75542"
       gradientTransform="matrix(1,0,0,1.3592606,0,-101.64879)"
       gradientUnits="userSpaceOnUse" /><radialGradient
       inkscape:collect="always"
       xlink:href="#linearGradient20"
       id="radialGradient1"
       gradientUnits="userSpaceOnUse"
       gradientTransform="matrix(1,0,0,1.3592606,0,-101.64879)"
       cx="238.14932"
       cy="282.9389"
       fx="238.14932"
       fy="282.9389"
       r="176.75542" /><radialGradient
       inkscape:collect="always"
       xlink:href="#linearGradient20"
       id="radialGradient2"
       gradientUnits="userSpaceOnUse"
       gradientTransform="matrix(1,0,0,1.3592606,0,-101.64879)"
       cx="238.14932"
       cy="282.9389"
       fx="238.14932"
       fy="282.9389"
       r="176.75542" /></defs><g
     inkscape:groupmode="layer"
     id="layer3"
     inkscape:label="Capa 2"
     style="display:inline;fill:#615046;fill-opacity:1"><path
       style="display:inline;fill:#e173f1;fill-opacity:0.244941;stroke-width:1.36781"
       d="m 90.860219,164.4355 c -0.5383,-0.22996 -6.18441,-4.71707 -7.956608,-5.73025 -4.08926,-2.33784 -11.303025,-10.17193 -13.70403,-14.71652 -3.325559,-6.29458 -0.841187,-15.95459 1.604285,-20.08505 1.012683,-1.71044 4.783162,-6.06163 6.535471,-7.20545 1.892222,-1.23514 11.783042,-9.112 12.387912,-10.09978 1.70326,-2.78142 2.70614,-15.977987 2.66215,-20.003197 -0.20519,-18.77018 -0.82155,-9.38068 -1.25104,-39.46487 -0.0599,-4.199245 6.827713,-10.551772 9.538831,-6.412601 1.89994,2.900719 0.91851,5.825416 0.74146,28.082921 -0.20014,25.15893 0.93818,30.188173 5.18171,28.41511 4.15564,-1.73633 12.98818,-10.15691 17.96082,-15.04129 1.37537,-1.35095 5.09576,-4.39194 8.15092,-7.04184 2.97317,-2.57877 8.51281,-7.56154 9.59317,-8.78567 1.79727,-2.03644 6.52401,-7.18279 8.45762,-5.98775 1.80276,1.11416 1.36959,7.53657 -0.65099,9.55712 -0.99929,0.99928 -10.13276,9.33338 -10.40488,9.56776 -1.33263,1.14781 -4.94938,4.50393 -10.35775,9.25032 -10.94725,9.60732 -18.16372,16.070087 -12.82653,17.676217 15.68985,4.72157 33.39192,12.2783 38.04636,15.48962 12.72803,8.78167 2.58599,15.30734 -2.68945,11.54007 -1.10967,-0.79244 -2.48623,-2.33717 -10.05742,-6.5234 -0.29305,-0.16203 -5.93518,-2.82803 -8.80972,-4.0858 -1.00568,-0.44003 -4.41749,-1.58661 -7.90284,-2.78917 -3.44047,-1.18708 -9.94844,-4.09354 -7.16423,-2.91492 1.2093,0.51193 -5.5655,-1.82138 -6.52734,-2.01892 -0.98453,-0.2022 -5.69669,-1.71508 -6.60596,-1.6136 -1.31628,0.14689 -1.53067,13.68262 -1.27685,25.49625 0.57939,26.96626 1.16429,23.9401 -1.79871,26.70054 -2.623104,2.4438 -8.628731,-0.29568 -10.517761,-1.10266 z m 1.14985,-25.66138 c 0.008,-2.51666 0.0165,-7.80177 -0.0311,-11.63235 -0.0998,-8.05019 -1.68264,-4.24372 -7.384691,1.12595 -5.214608,4.91064 -4.591449,9.07364 0.716717,15.52491 4.731634,5.7506 6.648644,9.66891 6.669174,3.67741 z M 50.09187,-3.1784224 c 0,-0.666176 1.771459,-1.202903 3.936572,-1.1927 2.987219,0.01409 3.498409,0.301711 2.119689,1.1927 -2.380707,1.538535 -6.056261,1.538535 -6.056261,0 z"
       id="path18-2"
       sodipodi:nodetypes="sssssssssssssssssssssssssssssssssssssssss" /></g><g
     inkscape:label="Capa 1"
     inkscape:groupmode="layer"
     id="layer1"
     style="display:inline;stroke:url(#radialGradient21)"><path
       style="opacity:0.983081;fill:#000000;stroke:url(#radialGradient1);stroke-width:0.377953"
       d="m 316.29896,406.75862 98.60578,-41.95344"
       id="path16" /><path
       style="opacity:0.983081;fill:#000000;stroke:url(#radialGradient2);stroke-width:0.377953"
       d="m 410.22136,500.30115 -15.35135,22.89443"
       id="path17" /><path
       style="display:inline;fill:#000000;fill-opacity:1;stroke:none;stroke-width:1.36781"
       d="m 88.718809,166.68794 c -0.5383,-0.22995 -6.184409,-4.71706 -7.956607,-5.73024 -4.089246,-2.33784 -11.303025,-10.17193 -13.70403,-14.71652 -3.325546,-6.29459 -0.841187,-15.95459 1.604285,-20.08505 1.012683,-1.71044 4.783162,-6.06163 6.535471,-7.20545 1.892222,-1.23514 11.783043,-9.112 12.387911,-10.09978 1.70326,-2.78142 2.70614,-15.977987 2.66216,-20.003197 -0.20519,-18.77018 -0.82156,-9.38068 -1.25105,-39.464872 -0.0599,-4.199245 6.82772,-10.551759 9.53884,-6.412601 1.899941,2.900719 0.918517,5.825429 0.741467,28.082923 -0.20014,25.15893 0.938174,30.188167 5.181714,28.415113 4.15564,-1.736333 12.98817,-10.156913 17.96082,-15.041293 1.37537,-1.35096 5.09576,-4.39194 8.15092,-7.04183 2.97317,-2.57879 8.51281,-7.56155 9.59317,-8.78568 1.79727,-2.03643 6.52401,-7.18279 8.45762,-5.98775 1.80275,1.11416 1.36958,7.53657 -0.65099,9.55712 -0.9993,0.99928 -10.13276,9.33337 -10.40489,9.56776 -1.33262,1.14781 -4.94937,4.50392 -10.35775,9.25032 -10.94724,9.607317 -18.16372,16.070087 -12.82652,17.676217 15.68985,4.72157 33.39192,12.2783 38.04636,15.48962 12.72803,8.78167 2.58598,15.30734 -2.68945,11.54006 -1.10968,-0.79243 -2.48623,-2.33717 -10.05742,-6.52339 -0.29305,-0.16203 -5.93518,-2.82803 -8.80972,-4.0858 -1.00568,-0.44004 -4.4175,-1.58661 -7.90284,-2.78917 -3.44047,-1.18708 -9.94845,-4.09354 -7.16424,-2.91492 1.20931,0.51193 -5.56549,-1.82138 -6.52733,-2.01892 -0.98453,-0.2022 -5.69669,-1.71508 -6.60597,-1.6136 -1.31628,0.14689 -1.53067,13.68262 -1.27685,25.49625 0.57939,26.96626 1.16429,23.9401 -1.798707,26.70054 -2.623094,2.4438 -8.628724,-0.29568 -10.517774,-1.10266 z m 1.14985,-25.66137 c 0.008,-2.51666 0.0166,-7.80177 -0.031,-11.63235 -0.0999,-8.05019 -1.68264,-4.24373 -7.384676,1.12595 -5.214608,4.91064 -4.59145,9.07364 0.716703,15.52491 4.731633,5.75059 6.648643,9.66891 6.669183,3.67741 z M 47.950475,-0.92596144 c 0,-0.66618996 1.771459,-1.20291696 3.936572,-1.19271296 2.987219,0.01409 3.498409,0.301711 2.119688,1.19271296 -2.380707,1.53852097 -6.05626,1.53852097 -6.05626,0 z"
       id="path18-2-9"
       sodipodi:nodetypes="sssssssssssssssssssssssssssssssssssssssss" /></g></svg>
